<?xml version="1.0" standalone="no"?>
<!DOCTYPE svg PUBLIC "-//W3C//DTD SVG 20010904//EN"
 "http://www.w3.org/TR/2001/REC-SVG-20010904/DTD/svg10.dtd">
<svg version="1.0" xmlns="http://www.w3.org/2000/svg"
 width="4381.000000pt" height="4135.000000pt" viewBox="0 0 4381.000000 4135.000000"
 preserveAspectRatio="xMidYMid meet">

<g transform="translate(0.000000,4135.000000) scale(0.100000,-0.100000)"
fill="#ffffff" stroke="none">
<path d="M21380 39190 c-3403 -83 -6681 -1086 -9534 -2917 -2243 -1440 -4174
-3369 -5609 -5603 -1695 -2640 -2683 -5630 -2891 -8750 -54 -801 -54 -1672 0
-2480 327 -4954 2636 -9553 6433 -12818 1847 -1587 4040 -2820 6337 -3561
1600 -516 3103 -789 4869 -883 305 -16 1360 -16 1670 0 1004 53 1862 157 2755
333 4080 807 7739 2951 10478 6139 2345 2729 3845 6105 4301 9680 103 805 145
1488 145 2350 0 1035 -66 1889 -220 2875 -680 4351 -2918 8338 -6298 11219
-2917 2486 -6523 4005 -10321 4346 -687 61 -1440 86 -2115 70z m1145 -630
c881 -37 1667 -123 2509 -276 3190 -576 6209 -2049 8652 -4221 552 -491 1116
-1058 1595 -1605 1554 -1772 2754 -3853 3501 -6068 751 -2228 1052 -4568 893
-6935 -245 -3631 -1597 -7094 -3882 -9945 -455 -567 -861 -1017 -1400 -1550
-734 -727 -1486 -1357 -2313 -1937 -3368 -2361 -7378 -3476 -11495 -3198
-3889 264 -7578 1800 -10540 4390 -530 463 -1128 1057 -1607 1595 -2639 2969
-4212 6724 -4473 10675 -36 552 -47 1393 -25 1915 127 2980 944 5764 2443
8320 1402 2391 3388 4467 5717 5977 2700 1749 5758 2725 8975 2862 281 12
1174 12 1450 1z"/>
<path d="M21860 38095 c-328 -56 -573 -238 -690 -514 -71 -166 -95 -318 -87
-555 6 -185 23 -274 77 -407 63 -151 206 -323 333 -398 278 -164 753 -196
1072 -72 206 79 378 248 464 454 76 183 108 453 81 677 -58 471 -341 754 -823
819 -104 14 -333 12 -427 -4z m361 -461 c113 -33 207 -119 247 -227 32 -84 46
-206 39 -346 -13 -289 -77 -423 -237 -500 -50 -23 -66 -26 -170 -26 -105 0
-120 2 -176 28 -112 52 -190 157 -219 294 -19 91 -19 338 0 438 34 178 127
297 268 340 58 19 183 18 248 -1z"/>
<path d="M19795 37994 c-304 -33 -539 -135 -697 -302 -168 -178 -237 -394
-225 -701 11 -280 76 -500 202 -676 50 -70 169 -187 238 -234 152 -103 376
-147 633 -122 373 36 596 148 739 370 65 102 127 276 136 386 l4 39 -255 43
c-140 24 -264 42 -274 40 -16 -2 -22 -16 -33 -82 -25 -149 -86 -246 -186 -295
-151 -74 -320 -61 -425 35 -93 84 -149 247 -171 498 -23 270 45 429 217 510
61 28 76 31 162 31 75 0 105 -5 142 -22 61 -27 132 -93 166 -154 15 -26 30
-48 34 -48 10 0 500 178 505 184 8 8 -60 125 -112 194 -108 143 -250 239 -420
283 -79 20 -288 33 -380 23z"/>
<path d="M23687 37973 c-42 -226 -318 -1905 -314 -1910 4 -3 130 -27 281 -52
l275 -47 10 61 c6 33 45 267 88 520 42 253 79 463 82 467 4 4 128 -256 276
-578 148 -322 272 -587 276 -589 11 -8 558 -99 562 -94 6 7 327 1932 323 1936
-4 5 -524 93 -546 93 -13 0 -32 -99 -105 -530 -49 -292 -92 -527 -96 -523 -4
5 -127 269 -274 588 -146 319 -269 583 -273 587 -6 6 -524 98 -550 98 -5 0
-12 -12 -15 -27z"/>
<path d="M17123 37434 l-311 -105 -20 -87 c-11 -48 -49 -216 -84 -374 -34
-159 -66 -288 -69 -288 -3 0 -136 112 -294 249 l-289 248 -318 -106 c-299 -99
-317 -107 -300 -123 9 -9 253 -199 542 -423 l525 -406 127 -386 c70 -212 129
-387 132 -390 5 -5 556 175 568 186 4 4 -50 181 -121 394 l-130 387 180 653
c99 358 181 658 184 665 2 6 1 12 -3 11 -4 0 -147 -48 -319 -105z"/>
<path d="M26332 37380 c-244 -66 -405 -269 -405 -511 0 -234 152 -416 551
-657 216 -131 291 -208 292 -300 0 -72 -59 -147 -136 -172 -59 -20 -161 -8
-236 27 -85 40 -131 82 -165 151 -25 51 -28 68 -28 155 l0 98 -35 9 c-235 62
-517 127 -524 119 -5 -4 -11 -68 -14 -142 -5 -151 13 -246 68 -362 78 -163
266 -294 568 -395 402 -134 693 -106 902 87 87 80 136 155 174 263 25 72 30
100 30 185 2 271 -145 439 -636 729 -81 47 -161 98 -178 112 -61 52 -75 112
-40 169 72 117 329 67 416 -81 22 -38 28 -61 30 -123 l3 -76 272 -68 c192 -48
274 -64 279 -56 14 22 20 157 10 227 -20 140 -67 229 -173 328 -89 83 -185
140 -332 195 -191 72 -320 100 -480 105 -117 4 -152 1 -213 -16z"/>
<path d="M27981 36688 c-55 -122 -100 -222 -98 -223 1 -1 125 -57 275 -125
150 -68 275 -128 278 -132 3 -5 -130 -306 -296 -670 -165 -363 -302 -665 -303
-671 -2 -8 524 -257 543 -257 4 0 144 301 311 670 167 368 309 670 314 670 6
0 133 -56 284 -125 151 -69 275 -124 276 -123 8 9 195 424 195 432 0 6 -370
179 -823 385 -452 206 -829 378 -838 382 -14 7 -33 -28 -118 -213z"/>
<path d="M13915 36100 c-59 -12 -161 -47 -243 -85 -101 -47 -1033 -568 -1038
-580 -4 -9 925 -1687 946 -1709 5 -5 124 56 274 139 l266 148 -19 31 c-35 58
-371 664 -371 669 0 2 26 16 59 31 68 30 139 34 197 10 21 -9 184 -108 362
-221 177 -112 328 -203 335 -201 19 5 587 322 587 328 0 3 -128 89 -283 192
-359 239 -467 286 -612 268 -33 -4 -61 -6 -63 -5 -1 1 23 28 53 61 62 66 127
188 144 272 25 121 5 237 -62 366 -110 212 -324 327 -532 286z m-47 -542 c39
-24 79 -89 88 -144 15 -97 -70 -188 -288 -310 -66 -36 -121 -65 -122 -63 -2 2
-46 80 -99 174 -85 150 -93 171 -79 181 57 38 312 170 351 181 55 15 104 9
149 -19z"/>
<path d="M29633 35082 c-452 -356 -818 -650 -815 -654 4 -3 123 -77 265 -162
l258 -156 125 114 125 115 292 -176 c161 -97 294 -178 296 -179 2 -2 -15 -77
-37 -166 -23 -90 -38 -166 -34 -170 15 -14 523 -318 532 -318 6 0 10 4 10 10
0 5 86 469 190 1031 105 562 190 1022 188 1023 -40 28 -559 336 -564 336 -5 0
-379 -292 -831 -648z m753 -315 c-47 -185 -86 -338 -86 -341 0 -15 -30 1 -195
100 l-177 107 33 33 c99 97 504 453 507 445 2 -5 -35 -160 -82 -344z"/>
<path d="M21170 35429 c-3292 -150 -6416 -1381 -8910 -3509 -416 -355 -1002
-920 -1342 -1295 -2075 -2287 -3367 -5082 -3747 -8110 -117 -932 -144 -1946
-75 -2905 136 -1916 654 -3803 1516 -5525 1028 -2053 2537 -3854 4383 -5235
1640 -1226 3501 -2092 5485 -2554 1904 -443 3900 -501 5835 -171 1635 279
3251 850 4690 1657 2199 1234 4036 2989 5367 5128 917 1474 1567 3109 1917
4821 431 2114 390 4340 -120 6428 -535 2197 -1545 4201 -2994 5946 -506 609
-1135 1249 -1735 1766 -1061 912 -2280 1691 -3533 2258 -1730 783 -3550 1216
-5467 1301 -258 11 -1011 11 -1270 -1z m1205 -619 c2019 -84 3908 -564 5690
-1445 1580 -782 2986 -1838 4185 -3145 1111 -1210 2025 -2646 2652 -4165 552
-1338 893 -2754 1013 -4200 31 -381 36 -499 42 -1001 10 -937 -44 -1661 -193
-2546 -379 -2268 -1338 -4445 -2767 -6285 -1727 -2225 -4068 -3885 -6726
-4770 -1167 -388 -2283 -603 -3621 -695 -253 -18 -1409 -18 -1660 0 -1083 76
-1967 221 -2900 476 -3366 922 -6304 3091 -8192 6046 -1269 1986 -2013 4226
-2182 6570 -39 528 -46 1372 -16 1825 19 291 40 547 66 775 332 3008 1628
5824 3709 8060 182 195 606 617 790 786 2035 1863 4534 3085 7230 3533 597
100 1184 158 1850 184 190 8 818 6 1030 -3z"/>
<path d="M21820 34589 c-133 -20 -262 -136 -311 -276 -23 -68 -24 -219 -9
-1158 5 -335 17 -1046 25 -1580 42 -2665 99 -5698 111 -5934 6 -104 8 -115 33
-143 30 -34 92 -46 130 -26 58 31 59 38 81 393 92 1529 243 4899 355 7951 15
387 14 427 0 493 -21 89 -78 178 -143 221 -74 49 -184 73 -272 59z"/>
<path d="M21122 31657 c-31 -18 -157 -206 -204 -305 -50 -106 -85 -244 -100
-392 -9 -97 -8 -152 6 -321 26 -310 87 -914 175 -1734 173 -1602 230 -2242
271 -3074 11 -231 18 -267 61 -316 55 -63 161 -72 208 -18 24 27 24 28 18 203
-3 96 -13 288 -21 425 -9 138 -36 727 -61 1310 -98 2311 -146 3372 -155 3488
-27 324 -62 643 -74 671 -25 59 -81 87 -124 63z"/>
<path d="M22444 31651 c-17 -11 -37 -34 -44 -53 -13 -38 -63 -513 -79 -763
-13 -202 -29 -550 -121 -2735 -39 -910 -77 -1772 -85 -1915 -41 -703 -42 -689
32 -715 36 -12 50 -12 90 -2 56 15 78 33 104 84 23 45 26 71 44 438 38 725
100 1425 264 2940 183 1686 201 1928 166 2136 -30 176 -82 301 -193 467 -93
140 -117 155 -178 118z"/>
<path d="M20293 30301 c-96 -69 -208 -226 -244 -341 -39 -124 -33 -180 79
-700 55 -256 150 -706 211 -1000 464 -2247 570 -2750 589 -2800 24 -61 68 -90
137 -90 96 0 125 48 99 160 -8 35 -96 583 -195 1219 -161 1032 -216 1385 -383
2441 -60 376 -91 616 -110 836 -21 241 -44 304 -111 304 -19 0 -48 -11 -72
-29z"/>
<path d="M23233 30308 c-32 -34 -50 -116 -63 -278 -15 -195 -51 -472 -100
-780 -113 -709 -265 -1679 -410 -2610 -88 -569 -168 -1065 -177 -1102 -29
-118 -1 -168 95 -168 60 0 105 24 129 68 11 20 32 93 47 162 14 69 78 373 141
675 64 303 190 908 280 1345 194 939 267 1291 370 1770 71 328 76 362 72 445
-7 142 -67 270 -185 391 -101 105 -157 127 -199 82z"/>
<path d="M19453 29409 c-56 -11 -132 -45 -162 -72 -62 -57 -78 -168 -40 -280
11 -34 63 -174 114 -312 52 -137 163 -470 248 -740 214 -676 773 -2470 787
-2525 18 -67 44 -112 87 -151 51 -47 97 -65 131 -53 27 10 27 10 25 109 -3
193 -117 754 -290 1420 -54 209 -107 400 -308 1120 -130 464 -239 884 -301
1150 -47 205 -65 254 -106 292 -42 39 -116 56 -185 42z"/>
<path d="M24095 29410 c-101 -23 -132 -71 -180 -280 -61 -264 -189 -758 -299
-1150 -57 -206 -139 -499 -181 -650 -243 -871 -415 -1636 -439 -1952 -6 -75
-5 -78 20 -94 37 -25 94 -5 153 54 41 42 50 59 80 157 58 191 786 2519 866
2770 42 132 119 353 170 490 109 293 135 374 135 422 0 59 -22 115 -61 154
-57 57 -189 97 -264 79z"/>
<path d="M18642 28964 c-153 -41 -213 -154 -164 -311 11 -32 262 -629 560
-1328 297 -698 619 -1456 716 -1683 96 -226 187 -427 201 -446 31 -41 84 -68
146 -74 40 -4 49 -1 63 19 9 13 16 36 16 51 0 37 -106 386 -223 733 -146 432
-217 626 -672 1820 -123 325 -278 747 -381 1039 -43 123 -76 170 -132 186 -47
13 -65 12 -130 -6z"/>
<path d="M24867 28966 c-74 -27 -71 -22 -198 -386 -71 -205 -261 -712 -532
-1425 -256 -671 -385 -1033 -535 -1496 -132 -405 -150 -489 -114 -522 37 -33
126 -13 184 41 34 33 63 94 247 527 1103 2591 1244 2926 1258 2990 19 87 8
139 -43 194 -62 69 -190 106 -267 77z"/>
<path d="M17755 28624 c-11 -2 -43 -9 -71 -14 -29 -6 -65 -23 -85 -39 -33 -28
-34 -31 -33 -97 0 -50 7 -85 24 -124 26 -61 213 -395 848 -1515 519 -917 1000
-1765 1055 -1863 58 -103 105 -123 192 -83 69 32 90 63 90 134 0 60 -7 74
-234 537 -327 663 -1039 2117 -1271 2592 -190 391 -224 449 -278 469 -23 9
-197 11 -237 3z"/>
<path d="M25644 28616 c-17 -8 -43 -29 -57 -47 -13 -19 -158 -306 -320 -639
-303 -621 -626 -1281 -1111 -2267 -151 -309 -280 -583 -286 -609 -15 -67 12
-121 79 -158 95 -51 150 -28 211 86 19 35 268 477 555 983 1072 1889 1309
2312 1336 2375 73 174 35 252 -137 280 -86 14 -233 12 -270 -4z"/>
<path d="M14137 28564 c-64 -20 -132 -87 -147 -146 -20 -73 -8 -169 33 -251
56 -113 148 -217 368 -417 569 -517 1069 -991 2184 -2070 1234 -1194 1483
-1430 1557 -1481 64 -44 88 -73 88 -106 0 -18 6 -23 24 -23 16 0 48 -21 88
-56 85 -74 131 -98 181 -91 68 9 127 82 127 157 0 61 -21 93 -149 225 -65 66
-511 534 -992 1040 -1332 1401 -1554 1631 -2348 2428 -645 647 -744 742 -797
768 -74 37 -150 45 -217 23z"/>
<path d="M29338 28561 c-31 -10 -74 -31 -95 -47 -57 -43 -1536 -1534 -1943
-1959 -1119 -1168 -2258 -2372 -2278 -2408 -17 -31 -22 -52 -19 -80 6 -46 46
-106 86 -130 60 -35 112 -18 218 72 47 40 81 61 97 61 22 0 26 5 26 28 0 33
22 59 87 103 68 46 366 330 1513 1439 1152 1114 1532 1475 2160 2052 129 118
260 242 291 274 193 205 242 420 121 536 -76 73 -163 93 -264 59z"/>
<path d="M15412 28490 c-47 -20 -57 -123 -18 -205 30 -64 225 -289 3202 -3705
92 -105 136 -144 191 -167 66 -27 144 2 169 64 18 42 5 76 -65 168 -28 36 -51
70 -51 75 0 5 -26 44 -58 87 -32 43 -121 164 -197 268 -276 380 -626 826
-1185 1510 -624 763 -839 1033 -1134 1424 -192 253 -251 309 -409 386 -162 78
-378 124 -445 95z"/>
<path d="M28014 28476 c-189 -49 -354 -137 -455 -243 -26 -26 -111 -133 -190
-238 -273 -362 -485 -629 -1094 -1375 -536 -656 -778 -961 -1036 -1305 -180
-239 -423 -574 -439 -605 -7 -14 -35 -53 -61 -88 -76 -98 -75 -155 4 -202 58
-36 123 -21 198 47 50 45 -2 -14 1390 1583 1357 1557 1875 2155 1905 2201 35
51 51 136 36 187 -10 31 -19 43 -44 51 -47 17 -113 12 -214 -13z"/>
<path d="M16936 28383 c-4 -5 -70 -10 -147 -13 -159 -7 -177 -14 -217 -91 -40
-76 -16 -146 90 -264 30 -33 113 -141 184 -240 195 -270 363 -497 974 -1310
591 -787 792 -1063 1063 -1455 93 -135 186 -262 206 -284 87 -93 195 -99 282
-16 39 37 41 42 37 83 -4 32 -23 70 -75 148 -39 57 -198 304 -355 549 -1104
1724 -1794 2791 -1826 2826 -24 26 -56 47 -87 57 -51 18 -116 22 -129 10z"/>
<path d="M26600 28381 c-52 -17 -90 -42 -123 -83 -27 -35 -1364 -2111 -2007
-3118 -79 -124 -159 -244 -176 -268 -18 -24 -40 -63 -50 -87 -15 -41 -15 -46
2 -82 27 -54 110 -97 177 -90 95 9 109 25 402 447 219 316 476 665 1125 1530
344 459 704 943 799 1075 96 132 200 270 233 307 108 123 132 198 89 278 -32
60 -69 74 -216 82 -71 4 -152 10 -180 12 -27 3 -61 1 -75 -3z"/>
<path d="M14320 27202 c-7 -26 -14 -92 -17 -147 -13 -236 89 -439 315 -626 53
-44 194 -153 312 -242 118 -88 510 -393 870 -676 360 -283 1004 -789 1430
-1125 426 -335 796 -628 821 -651 81 -75 134 -91 190 -58 54 32 48 85 -20 190
-90 138 -177 225 -598 592 -134 117 -359 316 -500 444 -142 128 -440 397 -663
597 -1014 915 -1719 1498 -2061 1708 l-67 41 -12 -47z"/>
<path d="M29169 27157 c-153 -101 -273 -192 -521 -394 -532 -432 -855 -714
-1773 -1543 -472 -427 -791 -710 -1045 -931 -312 -271 -477 -478 -458 -576 2
-10 19 -27 39 -37 50 -27 92 -16 164 44 62 51 965 763 2195 1731 388 305 824
644 970 754 397 299 512 423 576 620 22 65 27 100 27 190 1 119 -17 225 -37
225 -7 0 -69 -37 -137 -83z"/>
<path d="M14405 26013 c-31 -30 -53 -121 -75 -302 -21 -168 6 -206 263 -367
229 -144 470 -300 1022 -664 1005 -663 1525 -990 2035 -1280 91 -52 185 -107
209 -122 64 -40 110 -38 149 7 65 73 48 145 -55 247 -32 31 -159 127 -283 214
-313 219 -535 381 -890 648 -1261 950 -1480 1110 -1915 1401 -342 228 -416
263 -460 218z"/>
<path d="M29110 26003 c-78 -39 -540 -348 -835 -559 -137 -98 -468 -343 -735
-543 -267 -201 -593 -446 -725 -546 -308 -231 -585 -433 -854 -620 -234 -164
-334 -253 -352 -314 -16 -52 -5 -103 30 -140 47 -50 72 -44 265 66 559 317
1072 638 2040 1275 603 398 862 567 1088 709 212 133 240 155 270 214 18 35
20 51 15 140 -8 125 -40 281 -65 315 -27 36 -74 37 -142 3z"/>
<path d="M14240 25029 c-35 -14 -69 -48 -90 -89 -27 -53 -60 -172 -60 -216 0
-49 29 -111 67 -147 16 -15 582 -303 1259 -641 676 -338 1373 -689 1549 -780
590 -307 659 -340 715 -340 62 0 96 23 128 84 39 78 23 165 -41 212 -53 39
-168 106 -1127 655 -1893 1085 -2127 1217 -2198 1245 -77 29 -154 36 -202 17z"/>
<path d="M29195 25007 c-85 -34 -146 -69 -2000 -1132 -1396 -801 -1302 -745
-1341 -790 -56 -63 -53 -151 7 -220 40 -46 83 -59 145 -45 28 6 232 106 479
234 446 232 1777 902 2535 1276 476 235 505 254 529 342 7 26 11 62 7 81 -13
69 -59 193 -83 226 -54 70 -150 80 -278 28z"/>
<path d="M13873 24148 c-36 -17 -63 -86 -70 -176 -5 -74 -4 -85 21 -135 16
-34 41 -64 65 -81 62 -43 3603 -1356 3657 -1356 48 0 73 15 90 55 30 72 6 141
-64 186 -24 15 -171 78 -326 140 -313 125 -554 232 -1266 561 -860 399 -1279
574 -1741 729 -264 89 -318 100 -366 77z"/>
<path d="M29547 24119 c-468 -145 -962 -350 -1952 -809 -671 -311 -907 -415
-1228 -542 -247 -98 -284 -115 -324 -154 l-45 -43 4 -62 c4 -53 9 -66 33 -87
25 -21 35 -24 79 -19 31 4 409 139 936 335 487 181 1290 479 1785 663 894 331
900 334 946 380 61 60 77 122 60 224 -20 115 -53 155 -126 155 -22 -1 -98 -19
-168 -41z"/>
<path d="M20217 23462 l-327 -327 0 -623 0 -622 705 0 705 0 0 228 0 229 107
86 108 87 269 0 269 0 108 -87 109 -88 0 -360 0 -360 -110 -87 -110 -88 -757
0 -757 0 -323 -322 -323 -323 0 -1477 0 -1478 1900 0 1900 0 0 950 0 950 -710
0 -710 0 0 -320 0 -320 -480 0 -480 0 0 453 0 452 110 88 110 87 758 0 757 0
323 323 322 323 0 1149 0 1150 -328 328 -327 327 -1245 0 -1245 0 -328 -328z"/>
<path d="M13415 23306 c-108 -40 -180 -214 -125 -303 10 -18 32 -38 47 -46 59
-30 649 -192 1360 -372 1372 -348 1734 -449 2333 -650 140 -47 266 -85 281
-85 100 0 188 92 189 198 0 69 -30 92 -175 131 -293 79 -605 176 -1070 334
-275 93 -709 239 -965 326 -688 232 -1083 346 -1505 431 -242 49 -315 56 -370
36z"/>
<path d="M29965 23291 c-565 -108 -1011 -241 -2325 -695 -581 -201 -877 -294
-1378 -433 -30 -8 -68 -28 -85 -43 -27 -24 -32 -35 -31 -73 2 -98 72 -180 165
-193 39 -5 72 3 240 60 552 190 1022 322 2254 635 868 220 1424 371 1502 408
44 21 67 59 66 113 0 100 -49 192 -119 225 -59 28 -124 27 -289 -4z"/>
<path d="M12840 22584 c-71 -19 -141 -55 -270 -138 -140 -91 -160 -111 -160
-156 0 -55 17 -70 90 -80 36 -4 133 -24 215 -43 288 -68 625 -129 1335 -241
380 -60 548 -84 1109 -156 931 -119 1340 -189 1770 -302 227 -60 310 -69 358
-39 42 26 76 94 77 153 1 70 -25 92 -138 117 -319 71 -2303 503 -2596 565
-401 85 -636 130 -1260 246 -239 44 -444 82 -455 84 -11 2 -45 -2 -75 -10z"/>
<path d="M30320 22520 c-931 -176 -1201 -231 -2390 -491 -377 -83 -872 -190
-1100 -240 -228 -49 -439 -96 -467 -105 -69 -19 -88 -46 -80 -115 12 -98 72
-159 157 -159 26 0 143 25 261 55 484 123 828 182 1821 310 1020 131 1925 278
2383 386 93 22 199 44 235 49 48 6 69 14 82 30 20 25 23 62 7 91 -12 23 -225
167 -311 210 -50 25 -161 61 -178 58 -3 -1 -192 -37 -420 -79z"/>
<path d="M11720 21780 c-208 -26 -344 -67 -546 -165 -171 -83 -204 -112 -204
-176 0 -50 24 -97 55 -109 14 -5 80 -12 147 -15 161 -7 1042 -48 1843 -85 352
-17 840 -42 1084 -55 591 -34 778 -42 1146 -55 719 -24 1371 -40 1670 -41
l320 -2 3 59 c4 100 -30 134 -160 160 -40 8 -471 52 -958 99 -1098 106 -2761
269 -3425 336 -523 53 -822 67 -975 49z"/>
<path d="M31495 21783 c-27 -2 -228 -21 -445 -43 -577 -58 -2288 -225 -3420
-335 -957 -93 -1071 -105 -1136 -126 -63 -20 -98 -85 -88 -163 l6 -41 212 2
c694 6 2050 47 2576 78 564 34 1098 60 2190 110 421 19 803 37 850 40 47 3
146 7 222 10 180 6 202 17 214 108 10 71 -18 98 -185 183 -206 104 -362 151
-580 173 -96 10 -300 12 -416 4z"/>
<path d="M8310 21087 c-105 -30 -167 -100 -181 -205 -4 -31 -17 -68 -30 -85
-18 -25 -21 -38 -16 -86 13 -122 63 -204 153 -253 87 -46 139 -51 489 -44
1185 25 2781 63 5705 136 652 16 1509 37 1905 46 396 9 737 20 757 25 48 12
95 60 104 104 15 82 -20 143 -92 165 -46 13 -26 13 -1269 50 -2445 75 -3532
104 -5235 140 -261 6 -873 13 -1360 15 -710 4 -894 3 -930 -8z"/>
<path d="M33550 21089 c-1410 -24 -3367 -75 -5575 -144 -440 -14 -933 -29
-1095 -34 -162 -5 -312 -14 -332 -21 -67 -20 -91 -49 -95 -116 -5 -75 19 -117
80 -143 37 -17 98 -20 562 -30 286 -6 1420 -34 2520 -61 3950 -98 4925 -120
5370 -123 323 -2 331 -2 387 21 111 45 177 138 186 264 4 56 1 76 -16 111 -12
23 -27 68 -32 99 -8 43 -21 67 -50 101 -76 86 -35 82 -800 83 -371 1 -871 -2
-1110 -7z"/>
<path d="M16430 20449 c-1293 -38 -1619 -50 -2125 -79 -586 -34 -2553 -129
-3071 -148 -208 -8 -234 -15 -255 -70 -15 -37 -5 -109 17 -134 29 -31 283
-155 399 -194 199 -66 450 -93 715 -75 85 6 403 36 705 66 696 69 1673 165
3110 305 622 60 1156 116 1188 125 104 27 131 60 125 155 l-3 53 -270 1 c-148
1 -389 -1 -535 -5z"/>
<path d="M26407 20418 c-12 -86 24 -146 101 -168 70 -19 167 -30 1052 -115
829 -80 2287 -223 3420 -334 272 -27 551 -52 620 -56 221 -11 474 20 657 80
113 37 380 171 399 200 42 65 18 160 -46 182 -19 7 -78 12 -130 13 -52 0 -180
5 -285 10 -104 6 -581 28 -1060 50 -921 43 -1487 71 -1880 95 -362 22 -626 32
-1750 66 -198 6 -525 12 -726 13 l-367 2 -5 -38z"/>
<path d="M17135 20119 c-104 -33 -419 -108 -650 -154 -325 -65 -601 -108
-1120 -175 -754 -98 -923 -121 -1270 -176 -764 -120 -1064 -174 -1409 -254
-96 -22 -187 -40 -203 -40 -48 0 -73 -25 -73 -72 0 -52 26 -76 184 -177 125
-79 218 -121 281 -128 25 -3 227 30 530 87 872 162 1067 202 2795 579 531 116
997 218 1037 227 116 25 146 64 122 157 -26 103 -123 158 -224 126z"/>
<path d="M26396 20120 c-89 -27 -147 -168 -96 -233 25 -32 41 -37 275 -87 105
-23 602 -131 1105 -241 1505 -329 1740 -378 2700 -555 409 -75 408 -75 530
-15 90 45 276 169 305 203 14 16 25 42 25 57 0 46 -19 61 -94 72 -38 5 -112
20 -165 34 -418 106 -1428 271 -2474 405 -953 123 -1332 187 -1815 311 -243
62 -249 63 -296 49z"/>
<path d="M17062 19609 c-567 -193 -960 -304 -2142 -604 -706 -179 -1066 -274
-1394 -369 -160 -46 -194 -59 -220 -85 -28 -29 -31 -37 -31 -94 0 -116 67
-210 168 -238 98 -26 708 112 1300 295 252 79 420 135 1387 466 422 144 713
237 985 315 110 31 231 65 269 76 37 11 79 31 92 44 55 55 10 197 -75 242 -69
36 -111 30 -339 -48z"/>
<path d="M26252 19663 c-46 -23 -79 -66 -97 -128 -18 -60 -13 -94 18 -123 25
-23 38 -27 352 -116 322 -91 646 -196 1250 -404 1245 -430 1726 -570 2264
-662 115 -19 127 -20 176 -5 94 27 161 129 159 242 -1 49 -23 87 -63 108 -71
36 -682 202 -1699 459 -1004 255 -1422 373 -1944 547 -312 104 -355 112 -416
82z"/>
<path d="M17520 19132 c-13 -2 -405 -145 -870 -317 -2442 -905 -2735 -1016
-2769 -1043 -70 -57 -94 -146 -71 -268 16 -84 47 -123 105 -131 32 -4 83 9
245 62 508 166 915 336 1905 795 646 300 890 407 1212 534 222 87 279 114 317
147 52 46 65 88 47 148 -17 59 -59 84 -121 73z"/>
<path d="M26065 19131 c-54 -23 -81 -108 -55 -172 25 -60 57 -76 465 -237 238
-94 520 -220 1095 -487 681 -316 992 -454 1314 -582 342 -135 777 -283 834
-283 48 0 88 34 105 87 54 169 11 293 -123 352 -25 10 -720 270 -1545 576
-2242 831 -2049 763 -2090 746z"/>
<path d="M17605 18702 c-27 -9 -237 -115 -465 -233 -417 -217 -1624 -825
-2488 -1254 -316 -156 -475 -240 -499 -264 -43 -41 -63 -87 -63 -141 0 -51 54
-219 82 -255 28 -36 92 -65 146 -65 99 0 44 -30 2302 1265 1190 683 1127 646
1169 689 86 88 28 261 -91 272 -26 3 -63 -3 -93 -14z"/>
<path d="M25900 18703 c-39 -20 -76 -78 -85 -135 -5 -26 -1 -50 14 -82 25 -57
47 -71 493 -327 1826 -1048 2815 -1611 2873 -1634 91 -37 153 -42 211 -20 54
21 84 61 118 161 33 98 39 145 26 194 -25 92 23 66 -1470 813 -762 381 -1461
734 -1555 784 -501 266 -550 285 -625 246z"/>
<path d="M17905 18276 c-40 -18 -515 -292 -723 -418 -397 -240 -780 -486
-1602 -1028 -488 -321 -955 -624 -1090 -706 -91 -55 -143 -110 -159 -167 -12
-42 -11 -65 7 -190 12 -78 26 -159 32 -181 14 -46 51 -86 81 -86 41 0 147 61
404 232 435 291 693 479 1837 1339 497 374 809 601 1102 804 137 94 231 187
246 244 15 58 -8 124 -54 152 -36 22 -41 22 -81 5z"/>
<path d="M25670 18277 c-35 -18 -70 -74 -70 -114 0 -85 84 -172 331 -343 346
-240 648 -462 1319 -970 776 -587 1138 -849 1565 -1133 362 -241 409 -257 451
-159 21 51 54 250 54 328 0 119 -31 156 -245 290 -211 131 -554 354 -1112 722
-955 630 -1429 927 -1979 1243 -283 163 -272 158 -314 136z"/>
<path d="M18155 17869 c-17 -5 -60 -34 -95 -65 -36 -30 -112 -93 -170 -138
-58 -45 -685 -539 -1395 -1097 -709 -558 -1382 -1084 -1495 -1169 -387 -290
-487 -376 -566 -486 -90 -125 -134 -259 -133 -404 0 -72 19 -204 32 -216 13
-14 291 175 477 324 337 269 690 564 1040 871 213 186 329 290 1198 1074 200
180 502 449 670 597 293 256 372 333 471 459 48 62 91 144 91 177 0 50 -66 88
-125 73z"/>
<path d="M25396 17849 c-34 -27 -34 -70 -1 -134 71 -132 229 -294 605 -621
146 -127 427 -376 624 -555 807 -728 911 -821 1141 -1023 436 -382 960 -817
1202 -998 125 -93 328 -228 344 -228 14 0 34 137 33 230 -1 115 -22 199 -75
301 -81 155 -185 251 -644 595 -110 83 -488 377 -840 654 -352 277 -977 769
-1390 1093 -412 325 -771 609 -796 632 -83 77 -151 95 -203 54z"/>
<path d="M18415 17583 c-22 -15 -65 -48 -94 -75 -32 -28 -65 -48 -78 -48 -17
0 -23 -6 -23 -21 0 -35 -18 -57 -83 -101 -78 -53 -263 -229 -1597 -1519 -1094
-1057 -1464 -1408 -2061 -1956 -163 -149 -316 -295 -341 -325 -103 -121 -158
-240 -158 -343 0 -192 188 -293 379 -203 34 15 153 128 439 412 791 786 1338
1350 2737 2821 428 451 845 888 925 970 80 83 153 166 163 187 34 72 18 139
-48 197 -47 41 -103 43 -160 4z"/>
<path d="M25061 17571 c-22 -22 -45 -58 -52 -80 -23 -76 -1 -108 235 -355 116
-122 474 -498 796 -836 1406 -1480 1834 -1921 2607 -2692 382 -380 612 -603
638 -616 116 -57 235 -43 316 38 99 99 88 258 -30 426 -66 94 -150 178 -479
478 -507 462 -858 796 -2017 1916 -1170 1131 -1508 1453 -1560 1484 -58 35
-85 68 -85 101 0 28 -3 32 -23 28 -18 -4 -39 9 -88 52 -79 70 -127 95 -179 95
-33 0 -47 -7 -79 -39z"/>
<path d="M18790 17123 c-49 -19 -120 -86 -268 -256 -1441 -1649 -3033 -3481
-3092 -3560 -57 -74 -77 -170 -48 -231 14 -32 27 -36 113 -37 115 -1 291 54
428 133 101 58 186 145 320 323 273 363 552 714 1146 1440 705 862 1153 1442
1456 1884 33 48 73 106 88 129 49 71 37 131 -35 168 -27 14 -80 17 -108 7z"/>
<path d="M24718 17090 c-36 -36 -40 -44 -35 -76 3 -19 23 -58 44 -86 21 -28
56 -79 78 -114 78 -121 479 -661 724 -974 178 -228 389 -490 761 -945 557
-682 878 -1086 1123 -1414 122 -164 180 -224 281 -290 135 -88 341 -155 466
-152 99 2 115 16 115 104 0 45 -6 75 -23 108 -12 26 -185 235 -384 465 -801
928 -2872 3301 -2911 3337 -57 52 -108 77 -158 77 -35 0 -48 -6 -81 -40z"/>
<path d="M19165 16866 c-49 -22 -114 -100 -246 -291 -276 -403 -568 -803
-1184 -1620 -451 -599 -722 -965 -904 -1217 -62 -86 -140 -187 -173 -225 -107
-120 -128 -197 -76 -281 33 -54 67 -65 228 -75 80 -4 162 -8 184 -9 56 0 117
27 158 70 31 32 770 1175 1853 2867 158 248 307 478 331 513 60 86 74 115 74
155 0 87 -149 156 -245 113z"/>
<path d="M24319 16857 c-24 -13 -54 -39 -67 -58 -28 -41 -24 -75 16 -136 182
-281 439 -680 1240 -1928 520 -808 958 -1487 974 -1507 37 -47 101 -78 164
-79 88 -1 328 18 354 29 52 21 90 81 90 142 0 59 -20 99 -93 182 -35 41 -162
209 -282 373 -120 165 -428 579 -684 920 -750 997 -934 1248 -1259 1715 -101
146 -198 280 -216 298 -68 73 -156 91 -237 49z"/>
<path d="M19572 16655 c-39 -17 6 59 -494 -825 -225 -399 -644 -1139 -931
-1645 -286 -506 -534 -951 -550 -989 -36 -87 -45 -161 -23 -203 25 -50 86 -72
228 -85 217 -19 234 -8 348 226 142 294 752 1540 1180 2411 232 473 429 877
436 899 23 64 18 111 -16 150 -51 57 -125 83 -178 61z"/>
<path d="M23987 16655 c-101 -35 -139 -101 -112 -192 8 -28 166 -359 351 -735
355 -721 591 -1203 1044 -2129 152 -311 288 -586 303 -611 19 -33 40 -53 73
-68 42 -21 54 -22 161 -16 190 12 265 46 278 127 8 46 -14 127 -56 210 -29 59
-565 1008 -1391 2464 -256 451 -474 838 -486 860 -25 49 -68 90 -102 98 -14 3
-42 0 -63 -8z"/>
<path d="M20024 16391 c-23 -10 -54 -35 -69 -55 -27 -36 -1425 -3307 -1471
-3443 -26 -78 -30 -132 -13 -184 49 -145 307 -204 383 -87 8 13 46 114 85 225
102 291 228 632 438 1183 433 1134 624 1673 759 2138 49 169 51 187 28 220
-19 28 -82 29 -140 3z"/>
<path d="M23480 16391 c-19 -36 -10 -89 41 -258 155 -517 318 -973 752 -2113
211 -555 334 -887 436 -1180 87 -248 103 -271 200 -278 133 -10 247 61 271
168 10 47 10 66 -4 118 -14 55 -293 717 -1229 2915 -124 290 -236 545 -250
566 -32 48 -97 81 -160 81 -36 0 -49 -4 -57 -19z"/>
<path d="M20517 16229 c-61 -40 -81 -70 -111 -165 -14 -44 -122 -392 -241
-774 -547 -1758 -698 -2231 -810 -2530 -119 -319 -125 -337 -125 -409 0 -107
56 -176 171 -212 74 -23 137 -24 186 -4 77 32 99 70 138 240 81 360 169 691
400 1520 187 670 217 783 295 1095 162 653 259 1208 220 1255 -20 24 -72 18
-123 -16z"/>
<path d="M23006 16244 c-21 -20 -14 -113 25 -344 92 -537 190 -931 574 -2305
134 -480 230 -849 295 -1128 28 -120 57 -231 65 -246 21 -42 80 -89 121 -97
53 -10 136 1 191 26 118 52 163 147 132 279 -5 23 -56 167 -113 320 -99 262
-173 489 -475 1451 -165 529 -552 1772 -580 1868 -16 54 -33 85 -62 117 -63
68 -138 94 -173 59z"/>
<path d="M21022 16160 c-63 -15 -92 -57 -116 -166 -37 -165 -317 -1508 -450
-2154 -189 -919 -258 -1249 -352 -1680 -87 -404 -93 -474 -54 -590 39 -116
129 -246 224 -321 81 -65 128 -63 161 7 20 42 28 99 50 344 22 233 45 396 169
1175 58 363 155 982 216 1375 152 976 287 1826 298 1879 11 51 -1 106 -26 120
-28 15 -84 20 -120 11z"/>
<path d="M22537 16160 c-64 -20 -78 -64 -53 -167 9 -38 86 -518 171 -1068 189
-1212 262 -1678 365 -2325 108 -677 129 -833 154 -1126 19 -224 49 -286 129
-268 43 9 190 159 240 244 57 98 72 158 72 280 -1 90 -9 141 -57 360 -71 317
-184 857 -373 1775 -171 830 -428 2062 -450 2153 -18 74 -38 108 -74 127 -37
19 -91 25 -124 15z"/>
<path d="M21370 16052 c-24 -13 -43 -35 -62 -73 -27 -53 -28 -62 -43 -364 -39
-769 -101 -1470 -270 -3025 -86 -795 -146 -1394 -171 -1690 -25 -297 -6 -465
75 -677 29 -74 154 -278 203 -330 45 -48 128 -17 148 56 11 42 39 305 64 601
17 193 48 878 141 3090 30 723 65 1477 76 1675 39 680 38 718 -17 744 -37 17
-105 13 -144 -7z"/>
<path d="M21799 16055 c-14 -7 -31 -26 -38 -42 -39 -83 -211 -3675 -351 -7288
-52 -1362 -54 -1425 -41 -1485 38 -183 158 -289 337 -298 99 -5 158 12 238 69
72 51 131 135 158 223 24 79 25 -149 -12 2261 -61 3927 -112 6462 -130 6509
-22 58 -102 83 -161 51z"/>
<path d="M22130 16057 c-53 -27 -54 -52 -16 -707 9 -146 43 -904 76 -1685 125
-2945 120 -2846 146 -3160 48 -580 61 -634 155 -635 43 0 47 4 143 149 133
201 185 363 193 608 3 84 0 217 -6 295 -18 208 -93 958 -146 1443 -199 1839
-267 2606 -300 3385 -7 167 -23 235 -62 272 -49 47 -129 62 -183 35z"/>
<path d="M11660 34769 c-267 -197 -560 -415 -652 -482 l-166 -123 574 -780
c316 -428 581 -785 587 -791 10 -10 147 86 676 476 364 269 663 492 664 495 2
6 -253 356 -259 356 -2 0 -193 -140 -425 -311 -232 -170 -422 -309 -424 -307
-47 60 -226 310 -224 312 2 2 173 128 379 280 206 153 374 281 373 286 -5 18
-225 310 -234 310 -5 0 -174 -122 -376 -271 -202 -149 -371 -273 -377 -275
-11 -4 -186 226 -186 243 1 4 181 140 401 302 220 162 402 298 405 303 6 9
-234 339 -245 337 -3 0 -224 -162 -491 -360z"/>
<path d="M31371 34000 c-337 -417 -612 -762 -610 -767 4 -12 426 -353 436
-353 4 1 159 187 343 415 183 228 335 413 336 412 1 -1 -22 -292 -51 -647 -30
-354 -51 -648 -49 -652 5 -8 410 -338 430 -351 9 -5 206 231 628 752 339 418
616 764 616 769 0 7 -138 122 -391 325 l-47 37 -339 -417 c-241 -299 -339
-412 -341 -398 -1 11 20 291 48 621 27 331 50 617 50 635 -1 32 -13 44 -215
207 -118 94 -218 172 -222 171 -4 0 -284 -342 -622 -759z"/>
<path d="M10240 33551 c-77 -25 -147 -62 -211 -112 -46 -37 -615 -575 -833
-789 l-69 -68 679 -708 c373 -390 681 -709 684 -709 4 0 181 167 394 370 465
444 611 610 664 757 23 66 27 211 7 288 -39 150 -149 286 -288 355 -64 32 -91
39 -155 43 -94 5 -168 -9 -252 -49 -34 -16 -65 -28 -67 -25 -3 2 3 18 12 36 9
17 23 63 31 101 44 213 -100 440 -323 509 -82 25 -197 26 -273 1z m65 -570
c40 -23 93 -94 101 -137 14 -75 -35 -147 -208 -306 l-95 -87 -128 135 -128
135 113 107 c130 123 163 148 216 167 44 15 85 10 129 -14z m572 -492 c54 -26
101 -92 109 -153 11 -79 -26 -137 -195 -303 l-146 -144 -138 142 c-76 79 -136
146 -135 150 2 5 67 69 145 143 195 184 260 213 360 165z"/>
<path d="M33641 32835 c-187 -49 -363 -158 -541 -335 -229 -229 -331 -451
-333 -725 -1 -142 14 -208 78 -340 76 -159 216 -334 375 -467 110 -92 217
-149 340 -179 118 -30 288 -23 410 16 74 24 220 89 220 99 0 13 -242 497 -248
494 -4 -2 -29 -15 -57 -29 -133 -70 -260 -83 -355 -38 -108 52 -196 155 -225
265 -37 140 22 268 206 453 200 201 355 277 511 251 114 -18 233 -112 284
-225 36 -79 36 -192 0 -271 -14 -31 -26 -60 -26 -64 0 -5 100 -77 222 -161
252 -173 225 -169 278 -42 103 247 98 464 -15 682 -61 116 -130 207 -250 326
-268 268 -570 368 -874 290z"/>
<path d="M8628 32018 c-68 -84 -298 -370 -511 -635 l-387 -482 202 -164 c112
-90 457 -367 767 -616 l563 -453 23 23 c37 39 1005 1248 1011 1263 3 8 -57 63
-166 150 -95 76 -173 136 -174 134 -66 -88 -651 -808 -657 -808 -20 0 -299
232 -292 244 4 6 134 169 290 362 155 194 284 356 285 362 3 9 -289 252 -302
252 -4 0 -138 -164 -299 -365 -162 -201 -295 -365 -298 -365 -2 0 -58 43 -124
96 -106 86 -118 98 -106 113 8 9 152 188 321 398 l306 382 -152 122 c-84 67
-158 126 -165 131 -7 6 -51 -40 -135 -144z"/>
<path d="M34835 30964 c-330 -250 -682 -517 -782 -593 l-183 -139 181 -238
c99 -132 183 -240 187 -241 10 -4 1567 1177 1565 1186 -3 13 -354 476 -361
478 -4 1 -277 -203 -607 -453z"/>
<path d="M7570 30159 c-88 -9 -220 -55 -294 -101 -68 -43 -177 -148 -236 -228
-77 -105 -553 -901 -544 -910 29 -27 1678 -1009 1684 -1003 20 22 503 838 521
879 41 94 90 250 99 318 13 89 -2 215 -39 323 -62 181 -190 331 -401 472 -287
192 -549 275 -790 250z m108 -590 c134 -32 403 -191 505 -298 74 -77 101 -137
100 -216 0 -75 -24 -135 -111 -282 -62 -106 -67 -112 -86 -100 -12 8 -218 132
-458 276 -241 144 -438 266 -438 272 0 5 26 51 57 102 134 216 258 287 431
246z"/>
<path d="M35407 29800 c-560 -103 -1020 -189 -1022 -191 -4 -5 291 -498 309
-517 10 -10 43 -4 170 29 88 23 161 37 166 33 20 -21 351 -577 348 -585 -2 -4
-50 -61 -108 -125 -58 -64 -105 -122 -105 -129 0 -19 319 -545 326 -537 3 4
298 375 654 825 356 450 644 823 641 830 -24 55 -336 552 -347 554 -8 1 -472
-83 -1032 -187z m548 -602 c-120 -134 -230 -256 -245 -271 l-27 -28 -111 185
-111 186 27 7 c393 99 678 169 681 167 2 -2 -95 -112 -214 -246z"/>
<path d="M36950 28638 c-129 -60 -236 -111 -237 -112 -2 -2 22 -58 54 -125 40
-86 54 -124 46 -132 -6 -6 -38 -13 -70 -16 -91 -8 -162 21 -299 122 -21 15
-24 13 -103 -92 l-82 -107 23 -19 c186 -148 302 -200 449 -199 99 0 199 28
348 96 64 29 173 79 243 111 l126 58 -32 71 c-157 342 -212 456 -221 455 -5 0
-116 -50 -245 -111z"/>
<path d="M6281 28443 l-64 -4 6 -112 c11 -198 57 -316 166 -420 36 -35 93 -79
126 -98 55 -32 472 -223 503 -231 9 -2 54 89 132 261 l119 265 -242 108 c-132
60 -245 107 -250 105 -7 -2 -82 -158 -108 -225 -11 -28 -27 -21 -87 39 -53 54
-82 129 -89 236 l-6 83 -71 -2 c-39 -1 -100 -3 -135 -5z"/>
<path d="M37243 28022 c-128 -59 -235 -111 -238 -114 -3 -3 20 -61 51 -128 63
-135 63 -134 -13 -146 -82 -12 -174 20 -273 95 -30 22 -57 41 -60 41 -3 -1
-40 -49 -84 -107 l-79 -106 34 -29 c64 -54 171 -121 242 -152 68 -29 78 -31
197 -30 108 0 135 4 196 26 92 33 514 229 514 238 0 16 -236 514 -245 517 -6
1 -114 -46 -242 -105z"/>
<path d="M6018 27823 l-78 -4 0 -77 c0 -104 31 -247 71 -327 37 -76 108 -153
193 -209 70 -46 538 -258 548 -248 8 8 226 495 230 513 2 10 -460 228 -483
229 -4 0 -18 -26 -32 -57 -94 -210 -85 -195 -108 -183 -42 23 -99 93 -119 148
-12 31 -24 93 -27 139 l-6 83 -56 -2 c-31 -1 -91 -4 -133 -5z"/>
<path d="M38030 22426 c-224 -40 -394 -127 -523 -265 -155 -168 -228 -389
-228 -685 0 -343 89 -588 278 -767 107 -102 234 -169 398 -210 102 -26 353
-36 477 -20 408 54 688 283 778 636 63 248 45 586 -44 805 -97 242 -301 417
-565 487 -84 23 -120 26 -296 29 -136 2 -224 -1 -275 -10z m471 -590 c175 -37
272 -136 300 -305 36 -217 -75 -384 -297 -446 -80 -22 -345 -32 -441 -16 -242
41 -379 231 -334 463 31 159 143 264 323 303 86 18 363 19 449 1z"/>
<path d="M4397 22130 c-4 -101 -7 -508 -7 -906 l0 -723 53 -6 c28 -3 120 -5
202 -3 l150 3 5 553 5 553 550 -534 551 -534 190 -7 191 -7 7 47 c3 26 6 402
6 835 l0 789 -200 0 -200 0 -1 -67 c-1 -38 -5 -251 -8 -474 l-6 -406 -545 529
-545 528 -115 0 c-63 0 -151 3 -196 6 l-81 7 -6 -183z"/>
<path d="M4390 20238 c0 -19 60 -592 62 -593 2 -1 71 -15 153 -30 83 -15 154
-31 159 -36 5 -4 21 -135 37 -291 15 -156 30 -302 33 -326 l6 -43 -53 -23
c-28 -12 -97 -41 -152 -64 l-101 -42 30 -303 c16 -166 31 -304 32 -306 2 -2
1804 883 1823 895 3 3 -57 636 -62 640 -3 3 -1956 524 -1963 524 -2 0 -4 -1
-4 -2z m1164 -813 c180 -35 330 -66 332 -68 4 -4 -609 -263 -636 -269 -11 -2
-17 29 -31 162 -22 204 -23 240 -6 240 6 0 160 -29 341 -65z"/>
<path d="M37306 20027 c-14 -201 -27 -499 -22 -505 4 -3 430 -28 948 -55 683
-35 943 -45 948 -37 7 12 35 568 29 575 -2 2 -407 24 -899 49 -492 25 -918 48
-947 50 l-51 4 -6 -81z"/>
<path d="M37265 19088 c-15 -88 -75 -511 -73 -513 2 -1 234 -35 516 -76 281
-40 512 -76 512 -79 0 -3 -254 -129 -565 -280 -430 -209 -567 -280 -570 -295
-18 -80 -73 -520 -66 -524 13 -8 1870 -276 1875 -270 11 11 79 530 70 538 -5
5 -220 39 -479 76 -258 36 -486 70 -505 74 l-35 8 105 51 c567 272 1025 503
1029 519 8 41 78 528 76 531 -3 3 -1851 272 -1872 272 -7 0 -15 -15 -18 -32z"/>
<path d="M5590 18008 c-503 -109 -916 -201 -918 -202 -3 -3 117 -568 122 -573
2 -2 157 31 346 72 189 41 345 73 345 72 1 -1 14 -60 29 -132 63 -297 103
-418 174 -522 75 -110 163 -175 291 -214 64 -19 88 -21 190 -16 132 6 205 24
308 73 132 63 223 167 263 302 20 64 22 89 17 205 -4 121 -14 173 -114 632
-80 364 -114 500 -124 501 -8 1 -426 -88 -929 -198z m711 -555 c14 -59 24
-130 24 -180 0 -74 -3 -85 -30 -124 -41 -58 -102 -89 -175 -89 -120 0 -187 82
-234 290 -13 58 -22 107 -20 109 3 4 380 89 401 90 6 1 21 -40 34 -96z"/>
<path d="M37415 16820 c-358 -39 -610 -265 -745 -669 -86 -256 -96 -495 -29
-695 107 -321 378 -526 826 -622 117 -25 305 -23 416 4 321 79 524 287 647
662 56 172 72 278 68 440 -4 130 -8 155 -36 237 -53 157 -130 269 -256 375
-205 172 -620 297 -891 268z m241 -605 c179 -45 329 -119 399 -196 99 -109
112 -276 34 -429 -88 -174 -247 -231 -500 -180 -183 38 -337 106 -422 188
-209 200 -87 591 200 642 67 12 182 2 289 -25z"/>
<path d="M5117 15865 l94 -284 163 6 163 6 106 -318 c59 -175 106 -319 104
-320 -1 -1 -61 -43 -133 -93 l-131 -92 95 -294 c96 -294 96 -294 117 -278 12
9 368 298 792 641 l770 624 -102 306 -102 306 -949 37 c-522 20 -979 37 -1016
37 l-66 1 95 -285z m1542 -263 c-145 -111 -553 -392 -559 -386 -10 12 -131
377 -126 382 4 4 398 17 610 20 97 2 98 2 75 -16z"/>
<path d="M36023 14252 c-194 -444 -354 -813 -355 -820 -3 -11 390 -192 417
-192 6 0 62 120 125 266 63 146 118 268 122 270 4 3 297 -122 650 -277 354
-154 649 -282 656 -283 16 -1 247 524 235 534 -4 4 -298 134 -652 289 -354
154 -646 283 -648 285 -2 2 44 112 102 245 57 133 111 256 119 274 l13 33
-211 92 c-117 51 -214 92 -216 92 -3 0 -163 -363 -357 -808z"/>
<path d="M6705 14220 c-462 -226 -843 -414 -848 -419 -10 -10 377 -808 437
-900 74 -114 165 -220 231 -266 220 -157 490 -178 793 -61 338 130 581 326
682 550 49 108 63 184 57 321 -6 169 -32 238 -264 711 -107 220 -202 416 -211
437 -8 20 -20 37 -26 37 -6 0 -389 -185 -851 -410z m783 -422 c121 -271 91
-393 -134 -544 -167 -111 -361 -186 -484 -186 -143 -1 -216 62 -321 277 -27
55 -49 104 -49 110 1 10 905 455 926 455 6 0 34 -51 62 -112z"/>
<path d="M35415 12994 c-77 -125 -141 -231 -143 -238 -1 -6 194 -132 433 -280
240 -148 438 -273 441 -278 3 -4 -14 -8 -38 -8 -51 0 -1222 -51 -1224 -53 -1
-1 -65 -105 -143 -231 -115 -186 -140 -232 -129 -242 7 -7 370 -233 807 -504
638 -394 797 -488 806 -478 7 7 67 103 135 213 68 110 129 210 137 221 13 21
-1 31 -429 295 -380 235 -438 274 -413 278 17 1 300 15 630 30 l600 26 81 130
c44 72 110 178 147 236 l65 107 -809 501 c-445 276 -811 501 -812 501 -1 0
-65 -102 -142 -226z"/>
<path d="M8100 12539 c-148 -26 -291 -86 -439 -182 -187 -123 -309 -247 -389
-397 -170 -316 -135 -629 113 -1000 302 -453 736 -581 1192 -351 527 265 747
693 593 1150 -51 153 -170 352 -287 480 -123 136 -298 246 -453 286 -79 20
-255 28 -330 14z m383 -573 c92 -45 177 -147 213 -255 24 -76 16 -182 -21
-258 -52 -106 -227 -255 -400 -341 -205 -101 -352 -88 -480 42 -30 31 -68 85
-87 123 -30 61 -33 76 -33 158 0 81 3 97 32 155 72 145 332 341 523 395 79 22
187 14 253 -19z"/>
<path d="M9025 10383 c-385 -349 -700 -641 -700 -648 0 -13 374 -430 386 -430
4 0 131 113 283 250 152 138 281 251 286 253 15 5 68 -60 86 -106 30 -77 17
-135 -115 -511 -67 -190 -120 -349 -117 -355 2 -6 102 -118 221 -250 l218
-239 113 303 c151 401 172 513 126 644 -12 33 -21 61 -19 62 1 2 25 -11 52
-28 221 -138 478 -107 664 81 83 84 122 147 146 236 43 167 -4 319 -158 512
-40 50 -218 251 -397 448 -179 197 -336 370 -350 386 l-25 28 -700 -636z
m1009 -283 c70 -85 86 -119 86 -179 0 -92 -85 -171 -186 -171 -45 0 -59 6
-120 49 -75 53 -258 244 -252 263 2 6 65 67 139 135 l134 123 73 -78 c40 -42
97 -106 126 -142z"/>
<path d="M33841 10747 c-113 -132 -204 -245 -204 -251 0 -11 968 -1755 981
-1768 6 -5 263 288 370 423 l23 28 -91 136 -91 135 217 255 c119 140 218 255
220 255 2 0 65 -27 140 -60 76 -33 143 -61 150 -62 16 -4 406 454 396 464 -6
5 -1611 583 -1842 663 l-65 22 -204 -240z m706 -473 c175 -75 319 -137 320
-138 3 -2 -259 -311 -266 -313 -3 -2 -85 119 -181 269 -181 281 -204 318 -196
318 3 0 149 -61 323 -136z"/>
<path d="M10496 8804 c-496 -584 -614 -730 -604 -739 40 -37 1208 -1025 1212
-1025 5 0 276 317 276 324 0 2 -173 152 -385 332 -341 289 -384 329 -372 343
7 9 62 73 121 143 l108 128 27 -23 c14 -12 170 -143 345 -292 175 -148 322
-270 326 -270 5 0 64 65 131 144 l123 144 -25 21 c-14 12 -170 144 -347 295
-178 150 -321 277 -320 282 6 17 180 219 189 219 5 0 176 -142 381 -316 353
-300 372 -314 388 -297 9 10 68 78 130 152 83 97 111 137 104 147 -6 10 -1046
895 -1176 1002 -13 11 -100 -87 -632 -714z"/>
<path d="M32204 9084 c-110 -86 -207 -163 -217 -173 -17 -17 -5 -34 302 -427
175 -225 318 -410 316 -412 -1 -2 -271 83 -600 188 -328 105 -603 189 -610
186 -16 -6 -425 -325 -425 -331 0 -8 1151 -1480 1164 -1489 15 -10 436 312
433 331 -1 7 -143 193 -315 414 -173 220 -312 402 -310 403 1 2 266 -82 588
-185 322 -104 595 -187 606 -185 31 4 443 329 434 341 -34 45 -1128 1446
-1145 1467 l-22 26 -199 -154z"/>
<path d="M12530 8097 c-172 -59 -284 -175 -334 -346 -60 -203 41 -433 316
-726 178 -190 218 -252 218 -338 0 -65 -27 -111 -85 -145 -33 -19 -52 -22
-105 -20 -80 4 -141 32 -214 99 -99 90 -124 205 -76 342 13 37 22 68 19 71 -2
2 -111 65 -242 140 l-238 136 -29 -63 c-87 -192 -91 -410 -10 -572 82 -167
337 -383 594 -506 148 -70 237 -93 371 -93 97 0 120 4 195 30 107 37 181 86
259 169 105 113 158 254 148 399 -12 191 -105 343 -405 659 -172 182 -205 240
-168 305 36 66 135 82 222 36 64 -33 132 -99 155 -149 22 -48 24 -133 4 -190
-11 -31 -12 -42 -2 -51 19 -17 453 -264 465 -264 5 0 21 31 35 70 93 249 43
455 -159 655 -144 143 -401 298 -578 349 -119 35 -260 36 -356 3z"/>
<path d="M29940 7499 c-258 -150 -275 -161 -273 -187 4 -51 326 -1967 332
-1974 3 -4 87 40 186 98 99 58 214 125 256 149 l77 44 -39 153 c-21 84 -39
156 -39 160 0 3 123 77 273 164 149 86 280 162 289 168 13 8 38 -10 137 -103
l120 -112 265 153 c146 84 265 155 265 158 0 5 -1499 1232 -1552 1272 -22 16
-29 13 -297 -143z m529 -699 c127 -118 231 -217 231 -220 0 -5 -353 -211 -356
-207 -1 1 -37 148 -78 327 -42 179 -79 334 -82 344 -6 17 -3 17 24 -5 16 -13
133 -121 261 -239z"/>
<path d="M14946 6882 c-25 -41 -744 -1738 -738 -1743 11 -11 532 -232 536
-228 1 2 64 149 140 325 l137 322 162 -70 c216 -93 315 -125 428 -139 291 -37
519 126 620 442 53 162 47 294 -17 422 -34 66 -150 181 -233 229 -35 20 -274
127 -532 238 -551 236 -496 214 -503 202z m540 -642 c113 -53 177 -105 195
-157 18 -57 7 -137 -27 -186 -72 -102 -169 -112 -357 -37 -60 24 -111 49 -113
55 -4 10 116 308 148 368 11 22 21 19 154 -43z"/>
<path d="M28505 6750 c-154 -24 -385 -111 -541 -203 -100 -59 -217 -164 -268
-241 -105 -158 -118 -346 -37 -512 68 -138 171 -219 331 -261 104 -27 316 -22
520 12 196 33 330 38 376 13 167 -90 117 -299 -90 -377 -154 -57 -280 -21
-377 107 -24 31 -44 58 -45 60 -1 2 -115 -53 -253 -123 l-251 -125 36 -57
c133 -209 337 -333 545 -333 127 0 375 69 558 155 409 194 585 509 476 852
-56 179 -176 299 -350 353 -141 43 -311 38 -653 -21 -206 -35 -274 -37 -319
-9 -67 41 -64 140 8 205 56 50 121 77 205 82 65 5 77 3 124 -23 40 -22 90 -70
116 -112 4 -7 494 238 494 248 0 37 -123 177 -201 229 -107 71 -263 102 -404
81z"/>
<path d="M16696 6142 c-74 -252 -312 -1106 -323 -1156 -21 -102 -20 -296 1
-376 39 -142 128 -282 232 -363 121 -96 422 -214 643 -252 110 -20 280 -19
356 0 140 36 282 126 371 233 107 129 136 207 318 847 90 319 163 581 161 583
-3 4 -560 161 -561 159 -1 -1 -75 -261 -164 -577 -90 -316 -172 -593 -183
-615 -31 -63 -67 -104 -111 -130 -121 -71 -300 -46 -412 57 -72 67 -89 106
-87 213 1 85 10 122 165 661 l164 571 -215 62 c-119 33 -246 70 -283 80 -62
18 -68 18 -72 3z"/>
<path d="M25551 5779 c-41 -5 -120 -20 -176 -33 -431 -104 -685 -348 -750
-723 -19 -108 -19 -201 0 -325 62 -412 233 -682 524 -828 184 -92 439 -103
727 -30 341 86 566 260 670 518 51 126 59 177 58 352 -1 181 -18 283 -74 451
-152 453 -500 673 -979 618z m195 -489 c120 -58 202 -189 251 -400 34 -146 39
-350 10 -415 -64 -145 -200 -225 -380 -225 -69 0 -91 4 -142 29 -103 49 -177
146 -231 303 -62 183 -77 402 -35 510 76 195 334 292 527 198z"/>
<path d="M18810 5582 c0 -5 -60 -416 -134 -913 -74 -497 -136 -917 -138 -934
l-3 -30 785 -117 c432 -64 790 -116 795 -114 11 4 73 411 65 420 -3 2 -225 36
-495 76 -269 40 -493 75 -497 79 -8 7 41 352 51 362 3 4 208 -24 454 -60 440
-66 448 -67 452 -47 8 34 54 360 52 362 -1 1 -204 32 -452 69 -247 37 -451 68
-451 68 -7 7 44 291 52 294 5 2 223 -28 483 -67 260 -38 476 -70 480 -70 9 0
66 388 58 396 -5 5 -1522 234 -1549 234 -4 0 -8 -4 -8 -8z"/>
<path d="M23440 5397 c-470 -49 -857 -91 -859 -93 -9 -7 44 -457 55 -461 6 -2
139 10 295 26 156 17 287 27 290 23 3 -4 39 -324 79 -712 40 -388 74 -706 74
-707 2 -3 580 58 583 61 2 2 -31 321 -72 711 -41 390 -73 711 -70 713 2 3 136
18 297 35 161 16 294 30 295 31 0 1 -10 100 -23 221 -13 121 -24 226 -24 233
0 7 -13 12 -32 11 -18 -1 -418 -42 -888 -92z"/>
<path d="M20699 5228 c0 -57 -8 -483 -18 -948 -9 -465 -15 -848 -11 -851 3 -4
137 -9 298 -12 l292 -5 0 141 c0 78 3 254 7 391 l6 248 60 -7 c69 -7 120 -31
159 -72 27 -28 87 -139 278 -509 l104 -202 290 -7 c160 -4 309 -5 332 -3 l40
3 -147 300 c-122 249 -159 314 -216 385 -59 74 -77 90 -140 120 -40 19 -72 37
-73 40 0 3 28 13 62 23 104 31 169 68 238 137 104 104 150 221 150 380 0 256
-135 436 -370 493 -36 9 -105 21 -155 27 -74 8 -887 30 -1122 30 l-63 0 -1
-102z m1001 -318 c123 -45 161 -199 72 -293 -38 -40 -52 -46 -145 -63 -89 -15
-173 -18 -279 -7 l-68 6 0 166 c0 91 3 177 7 190 l6 23 186 -4 c116 -3 199
-10 221 -18z"/>
</g>
</svg>
